# xmcd
#
# Track frame offsets:
#  150
#  27083
#  52529
#  65694
#  89799
#  106990
#  125838
#  155171
#  175249
#
# Disc length: 2645 seconds
#
# Revision: 0
# Processed by: cddbd v1.5.1PL2 Copyright (c) Steve Scherf et al.
# Submitted via: Collectorz.com Music Collector 6.9
#
DISCID=790a5309
DTITLE=John Mayall - USA Union
DYEAR=1970
DGENRE=Blues Rock - British Blues
TTITLE0=Nature's disappearing
TTITLE1=Night flyer
TTITLE2=Off the road
TTITLE3=Possesive emotions
TTITLE4=Where did my legs go?
TTITLE5=Took the car
TTITLE6=Crying
TTITLE7=My pretty girl
TTITLE8=Deep blue sea
EXTD=
EXTT0=
EXTT1=
EXTT2=
EXTT3=
EXTT4=
EXTT5=
EXTT6=
EXTT7=
EXTT8=
PLAYORDER=
